<?xml version="1.0" standalone="no"?>
<!DOCTYPE svg PUBLIC "-//W3C//DTD SVG 20010904//EN"
 "http://www.w3.org/TR/2001/REC-SVG-20010904/DTD/svg10.dtd">
<svg version="1.0" xmlns="http://www.w3.org/2000/svg"
 width="206.000000pt" height="503.000000pt" viewBox="0 0 206.000000 503.000000"
 preserveAspectRatio="xMidYMid meet">

<g transform="translate(0.000000,503.000000) scale(0.100000,-0.100000)"
fill="#000000" stroke="none">
<path d="M0 4766 c0 -16 12 -43 29 -65 122 -155 153 -382 76 -557 -14 -31 -23
-59 -21 -61 8 -9 38 47 64 119 61 171 11 410 -117 558 l-30 35 -1 -29z"/>
<path d="M255 4041 c28 -8 28 -9 5 -10 -14 -1 -36 -4 -50 -6 -22 -5 -23 -4 -5
5 17 9 14 10 -13 5 -18 -2 -41 -10 -51 -17 -15 -11 -2 -13 83 -15 112 -2 160
-12 164 -35 4 -23 -58 -48 -118 -48 -60 0 -59 -12 4 -41 82 -37 186 -12 231
57 17 26 17 28 -1 42 -50 38 -130 65 -204 68 -53 2 -66 1 -45 -5z"/>
<path d="M22 3994 c-12 -19 -20 -34 -18 -34 7 0 49 61 44 65 -2 2 -13 -12 -26
-31z"/>
<path d="M0 3662 c0 -11 23 -29 63 -49 169 -88 300 -255 343 -439 11 -48 15
-99 12 -169 -4 -88 -8 -108 -37 -169 -36 -74 -120 -168 -182 -203 -51 -29
-145 -63 -174 -63 -22 0 -25 -4 -25 -36 l0 -37 39 6 c64 8 165 63 234 127 117
109 169 254 166 463 -2 121 -17 186 -66 286 -60 123 -204 249 -327 286 -42 13
-46 13 -46 -3z"/>
<path d="M1212 3445 c-71 -37 -156 -116 -176 -165 -9 -22 -19 -64 -22 -92 -6
-49 -3 -57 27 -102 47 -68 132 -118 209 -124 76 -6 121 10 164 59 28 30 36 47
36 78 0 70 -68 120 -147 108 -38 -7 -73 -32 -73 -53 0 -8 10 -3 25 11 36 37
79 33 121 -9 38 -38 42 -62 17 -113 -33 -71 -139 -91 -231 -44 -52 27 -78 58
-97 118 -15 45 -15 60 -5 103 7 27 21 61 31 74 10 13 19 29 19 34 0 26 93 90
162 112 63 21 78 22 134 13 142 -25 253 -107 320 -239 32 -64 38 -86 42 -158
9 -180 -48 -300 -191 -397 -34 -23 -54 -39 -44 -36 39 14 129 81 168 125 73
82 105 187 96 316 -15 243 -175 392 -432 403 -93 4 -104 3 -153 -22z"/>
<path d="M3 3003 c2 -136 9 -146 32 -47 14 60 7 119 -18 154 -16 23 -16 17
-14 -107z"/>
<path d="M1226 3113 c3 -12 19 -27 34 -33 30 -13 90 -5 90 11 0 18 -31 22 -48
7 -20 -18 -41 -13 -64 16 l-17 21 5 -22z"/>
<path d="M1496 2913 c-35 -47 -66 -127 -66 -167 1 -12 7 -34 14 -51 12 -29 13
-28 24 44 7 40 20 87 29 104 15 30 16 30 30 11 11 -14 13 -35 9 -74 l-5 -55
24 28 c13 15 30 46 37 68 11 38 10 45 -13 87 -13 25 -29 47 -36 50 -6 2 -28
-18 -47 -45z"/>
<path d="M742 2870 c-32 -20 -62 -71 -62 -107 0 -10 5 -36 12 -58 l11 -40 13
41 c17 60 32 84 51 84 14 0 15 -10 9 -72 -3 -40 -9 -86 -12 -102 -5 -22 -4
-27 6 -21 24 15 50 90 50 146 0 53 -25 149 -38 149 -4 0 -22 -9 -40 -20z"/>
<path d="M615 2770 c-30 -136 -170 -436 -283 -605 -75 -112 -239 -312 -248
-302 -2 2 3 23 11 47 8 23 15 68 14 99 l-1 56 -13 -70 c-13 -72 -51 -161 -79
-184 -12 -10 -16 -33 -16 -93 l0 -79 33 22 c65 46 215 207 276 299 35 52 92
153 128 225 57 114 75 139 142 205 124 122 248 175 394 168 230 -10 407 -204
407 -444 0 -88 -27 -179 -71 -239 -96 -130 -302 -164 -424 -70 -93 70 -98 210
-10 301 39 41 45 44 94 44 45 0 57 -4 83 -30 27 -27 30 -36 25 -71 -7 -50 -41
-89 -78 -89 -52 0 -69 68 -19 80 16 4 26 14 28 28 4 29 -9 28 -42 -4 -48 -49
-27 -114 37 -114 42 0 73 22 97 70 28 56 25 84 -14 127 -30 33 -38 37 -83 36
-120 -2 -207 -110 -208 -258 0 -91 24 -139 90 -180 45 -28 55 -30 144 -30 86
0 102 3 151 28 69 36 112 76 156 149 119 195 104 385 -43 539 -32 34 -80 74
-108 90 l-50 29 55 1 c55 1 14 8 -205 35 -109 13 -267 -42 -385 -134 -35 -28
-66 -50 -67 -49 -1 1 12 47 28 102 37 122 71 274 66 289 -2 6 -7 -5 -12 -24z"/>
<path d="M1590 2592 c0 -6 10 -14 23 -17 41 -13 137 -76 137 -91 0 -20 -69
-18 -98 2 -33 23 -38 11 -12 -26 39 -55 100 -73 168 -49 28 10 31 13 20 32
-24 46 -72 98 -111 122 -47 27 -127 44 -127 27z"/>
<path d="M855 2443 c44 -23 75 -54 75 -75 0 -24 -18 -20 -115 27 -38 18 -71
32 -73 31 -1 -2 10 -18 25 -36 61 -73 253 -110 253 -49 0 65 -66 119 -145 119
l-50 -1 30 -16z"/>
<path d="M102 2315 c-12 -25 -33 -63 -47 -86 -22 -33 -29 -38 -41 -29 -9 8
-14 9 -14 2 0 -6 5 -14 10 -17 7 -4 7 -12 0 -25 -13 -23 -13 -70 -1 -70 5 0
18 -3 28 -7 17 -6 17 -6 0 14 -16 18 -17 25 -7 44 12 22 13 22 35 -14 26 -44
35 -54 35 -40 0 6 -12 27 -26 48 l-25 38 41 89 c23 50 40 92 38 94 -2 2 -14
-17 -26 -41z"/>
<path d="M167 2181 c-19 -17 -37 -41 -41 -53 -4 -18 2 -15 32 16 30 32 38 37
40 22 2 -10 -4 -26 -14 -37 -23 -26 0 -25 27 2 21 21 23 69 2 76 -6 2 -27 -10
-46 -26z"/>
<path d="M0 2050 c0 -5 6 -10 13 -10 6 0 23 -3 37 -6 18 -4 16 -1 -9 10 -39
19 -41 19 -41 6z"/>
<path d="M717 1736 c-61 -17 -83 -36 -42 -36 16 0 49 -10 74 -22 l46 -23 -73
-6 c-55 -4 -78 -10 -94 -26 l-21 -21 40 -42 c43 -47 36 -46 207 -35 l118 8 -6
41 c-11 72 -47 128 -96 154 -50 25 -83 27 -153 8z"/>
<path d="M1269 1546 c-50 -13 -88 -38 -134 -85 l-29 -31 31 10 c17 6 55 10 84
8 l54 -3 -54 -28 c-59 -31 -101 -69 -101 -90 0 -18 71 -57 106 -57 21 0 254
104 283 127 8 6 -24 56 -62 95 -56 57 -107 73 -178 54z"/>
<path d="M125 1444 c-105 -11 -125 -15 -125 -31 0 -11 6 -14 23 -10 66 17 327
29 537 25 131 -2 208 -1 175 3 -69 9 -550 19 -610 13z"/>
<path d="M818 1413 c6 -2 18 -2 25 0 6 3 1 5 -13 5 -14 0 -19 -2 -12 -5z"/>
<path d="M38 1293 c-26 -3 -38 -9 -38 -20 0 -12 6 -14 27 -9 16 4 170 10 343
14 201 4 292 9 250 13 -69 7 -519 8 -582 2z"/>
<path d="M708 1273 c12 -2 32 -2 45 0 12 2 2 4 -23 4 -25 0 -35 -2 -22 -4z"/>
<path d="M1122 1233 c18 -21 42 -67 53 -102 7 -22 4 -22 -37 12 -48 39 -113
71 -128 62 -5 -3 -12 -26 -16 -50 -8 -58 8 -96 55 -131 20 -15 69 -57 109 -92
83 -73 80 -74 127 23 43 86 29 163 -39 223 -60 52 -161 97 -124 55z"/>
<path d="M0 1078 l0 -43 191 3 c253 4 385 -14 604 -83 11 -3 -2 6 -28 20 -151
82 -444 145 -674 145 l-93 0 0 -42z"/>
<path d="M18 984 c-10 -3 -18 -13 -18 -23 0 -15 11 -17 83 -17 74 1 89 -2 150
-32 53 -26 75 -45 107 -89 99 -139 106 -334 17 -485 -58 -100 -196 -192 -306
-205 -28 -3 -51 -10 -51 -16 0 -12 99 0 153 19 191 68 332 294 298 480 -27
147 -150 306 -269 348 -45 16 -138 27 -164 20z"/>
<path d="M10 740 c-12 -8 -9 -10 12 -10 14 0 34 -3 43 -6 22 -9 45 -57 45 -94
0 -40 -47 -90 -84 -90 -17 0 -26 -5 -26 -16 0 -14 8 -16 47 -11 63 7 103 49
103 108 0 32 -7 47 -37 79 -40 42 -78 57 -103 40z"/>
<path d="M2 633 c2 -10 14 -20 27 -21 19 -3 22 0 17 13 -3 9 -6 19 -6 21 0 2
-9 4 -21 4 -14 0 -19 -5 -17 -17z"/>
<path d="M2 305 l-1 -75 30 15 c34 18 59 62 59 105 0 29 -2 30 -44 30 l-43 0
-1 -75z"/>
</g>
</svg>
