<?xml version="1.0" standalone="no"?>
<!DOCTYPE svg PUBLIC "-//W3C//DTD SVG 20010904//EN"
 "http://www.w3.org/TR/2001/REC-SVG-20010904/DTD/svg10.dtd">
<svg version="1.0" xmlns="http://www.w3.org/2000/svg"
 width="325.000000pt" height="455.000000pt" viewBox="0 0 325.000000 455.000000"
 preserveAspectRatio="xMidYMid meet">

<g transform="translate(0.000000,455.000000) scale(0.100000,-0.100000)"
fill="#000000" stroke="none">
<path d="M1539 4106 c-14 -29 -6 -65 19 -97 18 -22 21 -22 58 -8 48 18 75 59
55 83 -7 9 -24 16 -36 16 -12 0 -28 7 -35 15 -19 23 -49 18 -61 -9z"/>
<path d="M2504 3834 c-9 -21 -13 -48 -9 -65 5 -23 13 -30 43 -35 71 -14 121
46 68 81 -14 9 -28 25 -31 36 -4 12 -16 19 -31 19 -19 0 -29 -8 -40 -36z"/>
<path d="M587 3749 c-30 -17 -16 -112 18 -125 22 -9 63 4 85 26 29 29 25 58
-7 71 -16 6 -39 17 -53 24 -17 9 -31 10 -43 4z"/>
<path d="M293 3186 c-49 -50 -50 -56 -24 -80 14 -12 32 -16 67 -14 l49 3 3 47
c2 37 -1 51 -17 67 -12 12 -24 21 -28 21 -5 0 -27 -20 -50 -44z"/>
<path d="M859 2099 c-13 -25 2 -89 25 -109 20 -16 101 20 111 49 8 27 -10 51
-40 51 -12 0 -28 7 -35 15 -18 22 -47 18 -61 -6z"/>
<path d="M1917 2053 c-12 -12 -7 -73 8 -103 13 -26 17 -27 52 -19 69 15 100
90 41 97 -14 2 -32 10 -38 18 -13 14 -51 19 -63 7z"/>
<path d="M2552 1813 c-6 -2 -10 -9 -6 -14 3 -5 -1 -9 -8 -10 -7 -1 -2 -4 12
-8 25 -7 40 2 40 27 0 12 -15 15 -38 5z"/>
<path d="M2512 1746 c-13 -29 -7 -36 27 -36 31 0 42 7 59 38 12 22 12 23 -8
12 -13 -7 -20 -7 -20 0 0 21 -47 10 -58 -14z m35 -2 c-3 -3 -12 -4 -19 -1 -8
3 -5 6 6 6 11 1 17 -2 13 -5z"/>
<path d="M2540 1359 c0 -5 -4 -8 -9 -4 -5 3 -12 1 -16 -5 -4 -6 5 -10 22 -10
l28 0 -35 -21 c-32 -20 -33 -22 -15 -35 22 -17 26 -17 45 -3 11 8 12 12 3 16
-7 2 -13 10 -13 16 0 6 7 4 17 -5 15 -15 19 -15 45 -2 26 13 28 17 16 32 -7 9
-17 20 -23 24 -15 12 -65 9 -65 -3z m65 -39 c3 -5 2 -10 -4 -10 -5 0 -13 5
-16 10 -3 6 -2 10 4 10 5 0 13 -4 16 -10z m-60 -38 c-3 -3 -11 0 -18 7 -9 10
-8 11 6 5 10 -3 15 -9 12 -12z"/>
</g>
</svg>
