<?xml version="1.0" standalone="no"?>
<!DOCTYPE svg PUBLIC "-//W3C//DTD SVG 20010904//EN"
 "http://www.w3.org/TR/2001/REC-SVG-20010904/DTD/svg10.dtd">
<svg version="1.0" xmlns="http://www.w3.org/2000/svg"
 width="206.000000pt" height="503.000000pt" viewBox="0 0 206.000000 503.000000"
 preserveAspectRatio="xMidYMid meet">

<g transform="translate(0.000000,503.000000) scale(0.100000,-0.100000)"
fill="#000000" stroke="none">
<path d="M274 4928 c0 -71 -5 -121 -17 -160 -18 -61 -97 -185 -115 -181 -7 2
-7 -8 -1 -30 5 -17 9 -34 9 -37 0 -13 75 101 96 145 43 93 74 365 41 365 -10
0 -13 -24 -13 -102z"/>
<path d="M870 5015 c0 -69 117 -162 226 -180 110 -17 226 72 209 161 -5 27
-11 34 -29 34 -22 0 -23 -3 -18 -45 16 -142 -187 -185 -295 -62 -17 19 -36 51
-43 71 -8 25 -18 36 -31 36 -10 0 -19 -7 -19 -15z"/>
<path d="M1081 5009 c0 -14 7 -33 17 -42 20 -19 78 -22 102 -7 13 9 13 11 0
20 -22 14 -37 12 -44 -5 -12 -32 -58 -5 -69 40 -4 16 -5 15 -6 -6z"/>
<path d="M1614 5014 c28 -73 11 -236 -35 -326 -28 -54 -103 -129 -170 -167
-30 -17 -49 -31 -43 -31 20 0 129 72 172 113 57 55 99 144 113 237 15 95 3
183 -25 188 -15 3 -17 0 -12 -14z"/>
<path d="M1365 4808 c-62 -73 -91 -181 -65 -243 10 -24 13 -15 28 65 14 75 30
112 45 107 16 -5 25 -54 16 -97 -5 -19 -6 -36 -4 -38 1 -2 15 13 30 32 47 61
43 152 -8 195 -12 9 -20 6 -42 -21z"/>
<path d="M603 4750 c-41 -25 -63 -68 -63 -122 1 -47 29 -115 30 -71 0 33 29
101 46 107 8 3 17 -1 21 -10 5 -14 -12 -144 -24 -183 -3 -9 7 -4 21 12 26 28
46 83 46 129 0 40 -19 123 -33 142 -11 15 -15 14 -44 -4z"/>
<path d="M467 4633 c-47 -158 -146 -378 -235 -523 -33 -54 -37 -66 -24 -69 15
-3 14 -5 -3 -13 -17 -7 -16 -8 5 -3 14 2 36 5 50 6 23 1 23 2 -5 9 l-30 8 33
1 c30 1 35 6 62 67 42 93 167 216 270 266 146 71 266 75 394 14 133 -64 218
-175 247 -324 32 -169 -40 -339 -175 -410 -44 -23 -63 -27 -141 -27 -110 0
-171 25 -212 87 -54 81 -38 205 33 267 40 36 72 46 116 37 50 -10 78 -42 78
-91 0 -69 -47 -113 -99 -94 -18 7 -22 15 -19 41 2 25 9 34 28 38 28 7 41 40
16 40 -22 0 -54 -34 -62 -66 -6 -22 -2 -32 20 -51 32 -27 47 -28 85 -9 56 30
89 108 66 162 -37 90 -197 81 -260 -15 -54 -81 -72 -200 -42 -272 63 -153 321
-167 462 -25 139 140 183 354 106 511 -39 78 -115 160 -191 203 l-55 32 85 2
85 1 -100 8 c-55 4 -145 10 -201 14 -69 5 -118 4 -155 -5 -79 -18 -185 -72
-256 -130 l-62 -50 15 42 c17 48 79 285 88 336 8 47 -1 39 -17 -15z"/>
<path d="M53 4513 c-43 -29 -53 -41 -53 -64 0 -36 6 -36 62 1 59 39 71 54 63
80 -8 25 -9 25 -72 -17z"/>
<path d="M1325 4480 c-3 -6 1 -7 9 -4 18 7 21 14 7 14 -6 0 -13 -4 -16 -10z"/>
<path d="M1509 4430 c41 -22 82 -47 90 -55 36 -36 -44 -42 -97 -8 -13 8 -25
13 -28 11 -10 -11 46 -71 84 -89 38 -19 49 -20 82 -10 22 6 42 16 45 21 14 23
-68 121 -126 151 -21 10 -58 19 -81 19 l-43 -1 74 -39z"/>
<path d="M704 4327 c40 -25 86 -70 86 -83 0 -23 -34 -16 -116 25 -43 22 -80
38 -82 37 -1 -2 9 -18 24 -35 42 -50 98 -74 188 -79 l79 -5 -7 34 c-13 70 -76
119 -151 118 -35 0 -38 -2 -21 -12z"/>
<path d="M42 4074 c-28 -17 -42 -32 -42 -46 0 -21 0 -21 25 2 25 23 25 23 25
2 0 -11 -10 -28 -22 -36 -29 -20 -16 -21 22 -1 18 9 32 26 36 43 3 15 7 32 9
39 7 23 -11 22 -53 -3z"/>
<path d="M122 3945 c-30 -38 -70 -86 -89 -106 -32 -34 -34 -39 -31 -100 2 -49
7 -64 19 -67 24 -4 144 151 222 290 l27 46 -47 4 -46 3 -55 -70z"/>
<path d="M1401 3863 c-34 -28 -39 -96 -11 -155 31 -67 41 -73 97 -59 26 7 59
21 75 32 27 20 58 67 58 89 0 21 -49 60 -76 60 -15 0 -37 9 -48 19 -32 30 -69
35 -95 14z"/>
<path d="M547 3605 c-49 -17 -57 -25 -26 -25 13 0 47 -11 74 -23 l50 -24 -66
-5 c-68 -6 -109 -23 -109 -47 0 -7 18 -31 40 -53 l39 -40 63 7 c35 3 97 7 138
9 l75 4 -3 38 c-4 54 -42 125 -82 152 -39 26 -131 30 -193 7z"/>
<path d="M225 3490 c10 -11 20 -20 23 -20 3 0 -3 9 -13 20 -10 11 -20 20 -23
20 -3 0 3 -9 13 -20z"/>
<path d="M1150 3431 c-51 -11 -110 -44 -148 -84 l-34 -35 49 10 c32 7 61 23
88 47 22 20 51 44 65 53 14 9 23 17 20 16 -3 0 -21 -3 -40 -7z"/>
<path d="M1156 3379 c-26 -23 -45 -46 -43 -52 1 -5 -7 -20 -19 -32 -23 -23
-50 -116 -40 -140 9 -25 55 -17 115 19 31 19 85 46 121 61 36 15 69 31 74 35
11 11 -46 93 -88 125 -45 34 -66 32 -120 -16z"/>
<path d="M190 3329 c-200 -8 -190 -7 -190 -22 0 -8 13 -11 43 -9 23 2 104 6
179 10 89 4 135 11 130 17 -4 6 -63 8 -162 4z"/>
<path d="M435 3311 c22 -5 92 -11 155 -14 71 -3 96 -2 65 3 -74 11 -269 21
-220 11z"/>
<path d="M1002 3247 c-25 -27 -28 -50 -8 -66 12 -10 16 -4 24 36 6 26 9 49 8
50 -1 2 -12 -7 -24 -20z"/>
<path d="M0 3164 c0 -14 7 -16 46 -10 26 3 118 6 205 6 88 0 159 4 159 9 0 5
-92 10 -205 10 -186 2 -205 0 -205 -15z"/>
<path d="M455 3161 c30 -9 162 -14 154 -7 -2 2 -44 6 -94 9 -54 4 -78 2 -60
-2z"/>
<path d="M638 3143 c12 -2 30 -2 40 0 9 3 -1 5 -23 4 -22 0 -30 -2 -17 -4z"/>
<path d="M1223 3125 c0 -8 4 -12 9 -9 5 3 6 10 3 15 -9 13 -12 11 -12 -6z"/>
<path d="M1001 3074 c38 -73 39 -97 2 -62 -64 60 -134 85 -147 52 -8 -20 -8
-98 0 -118 3 -9 27 -31 52 -49 26 -19 77 -62 113 -96 l67 -61 30 48 c52 81 65
191 25 206 -8 3 -12 9 -10 14 6 9 -11 32 -38 52 -11 8 -7 0 9 -18 17 -18 24
-32 18 -32 -14 0 -92 75 -92 88 0 7 -43 32 -55 32 -2 0 9 -25 26 -56z"/>
<path d="M40 2999 c0 -9 -3 -30 -6 -46 l-6 -30 144 -7 c78 -4 164 -10 190 -15
40 -7 47 -5 51 10 4 13 -3 21 -27 28 -53 17 -180 40 -257 47 -41 4 -77 12 -81
18 -5 7 -8 5 -8 -5z"/>
<path d="M3 2960 c0 -25 2 -35 4 -22 2 12 2 32 0 45 -2 12 -4 2 -4 -23z"/>
<path d="M426 2923 c-17 -18 -1 -33 47 -43 45 -9 123 -31 192 -54 11 -4 -2 5
-30 20 -64 34 -201 85 -209 77z"/>
<path d="M0 2836 c0 -9 14 -19 38 -25 20 -6 57 -23 82 -39 48 -31 106 -104 95
-121 -3 -7 0 -8 9 -5 23 9 20 17 -28 77 -67 81 -196 156 -196 113z"/>
<path d="M254 2598 c33 -120 27 -235 -17 -331 -20 -45 -21 -55 -10 -77 7 -14
13 -19 13 -11 0 7 15 43 33 80 30 61 32 73 32 166 0 73 -5 113 -18 148 -19 47
-45 67 -33 25z"/>
<path d="M1135 2560 c-3 -6 1 -7 9 -4 18 7 21 14 7 14 -6 0 -13 -4 -16 -10z"/>
<path d="M1278 2563 c12 -2 30 -2 40 0 9 3 -1 5 -23 4 -22 0 -30 -2 -17 -4z"/>
<path d="M0 2480 c0 -11 2 -20 4 -20 2 0 6 9 9 20 3 11 1 20 -4 20 -5 0 -9 -9
-9 -20z"/>
<path d="M1285 2440 c10 -11 20 -20 23 -20 3 0 -3 9 -13 20 -10 11 -20 20 -23
20 -3 0 3 -9 13 -20z"/>
<path d="M1661 2284 c-28 -36 -27 -89 5 -152 23 -46 29 -52 57 -52 74 1 157
64 157 121 0 36 -23 58 -70 65 -22 4 -47 15 -56 25 -25 28 -68 24 -93 -7z"/>
<path d="M161 2150 c-12 -17 -27 -28 -33 -24 -6 4 -8 3 -4 -4 7 -11 -34 -47
-65 -57 -25 -8 -24 -21 1 -28 11 -3 20 0 20 6 0 6 2 8 5 5 10 -9 115 95 115
113 0 27 -13 23 -39 -11z"/>
<path d="M859 2123 c-13 -16 -12 -17 4 -4 9 7 17 15 17 17 0 8 -8 3 -21 -13z"/>
<path d="M959 2063 c-13 -16 -12 -17 4 -4 9 7 17 15 17 17 0 8 -8 3 -21 -13z"/>
<path d="M0 2025 c0 -17 2 -18 24 -9 23 9 20 24 -4 24 -11 0 -20 -7 -20 -15z"/>
<path d="M139 1923 c-13 -16 -12 -17 4 -4 9 7 17 15 17 17 0 8 -8 3 -21 -13z"/>
<path d="M94 1878 l-19 -23 23 19 c21 18 27 26 19 26 -2 0 -12 -10 -23 -22z"/>
<path d="M1279 1843 c-13 -16 -12 -17 4 -4 9 7 17 15 17 17 0 8 -8 3 -21 -13z"/>
<path d="M753 1653 c9 -2 23 -2 30 0 6 3 -1 5 -18 5 -16 0 -22 -2 -12 -5z"/>
<path d="M640 1556 c0 -2 8 -10 18 -17 15 -13 16 -12 3 4 -13 16 -21 21 -21
13z"/>
<path d="M808 1523 c7 -3 16 -2 19 1 4 3 -2 6 -13 5 -11 0 -14 -3 -6 -6z"/>
<path d="M780 1426 c0 -2 7 -7 16 -10 8 -3 12 -2 9 4 -6 10 -25 14 -25 6z"/>
<path d="M848 1413 c6 -2 18 -2 25 0 6 3 1 5 -13 5 -14 0 -19 -2 -12 -5z"/>
<path d="M267 1303 c18 -2 50 -2 70 0 21 2 7 4 -32 4 -38 0 -55 -2 -38 -4z"/>
<path d="M387 1283 c18 -2 50 -2 70 0 21 2 7 4 -32 4 -38 0 -55 -2 -38 -4z"/>
<path d="M675 1280 c-3 -5 -1 -10 4 -10 6 0 11 5 11 10 0 6 -2 10 -4 10 -3 0
-8 -4 -11 -10z"/>
<path d="M808 1263 c12 -2 30 -2 40 0 9 3 -1 5 -23 4 -22 0 -30 -2 -17 -4z"/>
<path d="M1228 1263 c7 -3 16 -2 19 1 4 3 -2 6 -13 5 -11 0 -14 -3 -6 -6z"/>
<path d="M288 899 c6 -9 10 -18 7 -21 -3 -3 1 -11 9 -17 27 -22 26 6 -2 30
-14 13 -21 17 -14 8z"/>
<path d="M1190 896 c0 -2 8 -10 18 -17 15 -13 16 -12 3 4 -13 16 -21 21 -21
13z"/>
<path d="M775 745 c-19 -18 -25 -35 -25 -67 0 -46 27 -115 53 -136 29 -24 139
15 171 60 37 52 8 118 -51 118 -12 0 -39 11 -59 25 -46 31 -59 31 -89 0z"/>
<path d="M151 614 c0 -11 3 -14 6 -6 3 7 2 16 -1 19 -3 4 -6 -2 -5 -13z"/>
<path d="M68 383 c7 -3 16 -2 19 1 4 3 -2 6 -13 5 -11 0 -14 -3 -6 -6z"/>
</g>
</svg>
