<?xml version="1.0" standalone="no"?>
<!DOCTYPE svg PUBLIC "-//W3C//DTD SVG 20010904//EN"
 "http://www.w3.org/TR/2001/REC-SVG-20010904/DTD/svg10.dtd">
<svg version="1.0" xmlns="http://www.w3.org/2000/svg"
 width="325.000000pt" height="455.000000pt" viewBox="0 0 325.000000 455.000000"
 preserveAspectRatio="xMidYMid meet">

<g transform="translate(0.000000,455.000000) scale(0.100000,-0.100000)"
fill="#000000" stroke="none">
<path d="M1211 4096 c-6 -7 -25 -16 -41 -20 -59 -11 -27 -86 43 -102 40 -8 67
22 67 75 0 55 -40 82 -69 47z"/>
<path d="M2000 4059 c25 -11 61 -35 80 -52 l35 -32 -35 39 c-33 36 -84 66
-112 66 -7 0 7 -10 32 -21z"/>
<path d="M1769 4023 c-13 -16 -12 -17 4 -4 16 13 21 21 13 21 -2 0 -10 -8 -17
-17z"/>
<path d="M548 3975 c-6 -14 -15 -25 -19 -25 -11 0 -39 -30 -39 -41 0 -21 42
-49 74 -49 58 0 66 7 66 60 0 72 -57 110 -82 55z"/>
<path d="M1734 3965 c-23 -57 -18 -102 15 -136 16 -16 34 -29 39 -29 6 0 -3
13 -19 29 -24 25 -29 37 -29 81 0 28 5 60 10 71 6 10 8 19 5 19 -3 0 -13 -16
-21 -35z"/>
<path d="M1260 3949 c0 -5 5 -7 10 -4 6 3 10 8 10 11 0 2 -4 4 -10 4 -5 0 -10
-5 -10 -11z"/>
<path d="M1900 3927 c13 -7 30 -24 37 -37 12 -24 13 -24 13 -3 0 28 -25 53
-53 53 -21 0 -21 -1 3 -13z"/>
<path d="M1385 3920 c3 -5 8 -10 11 -10 2 0 4 5 4 10 0 6 -5 10 -11 10 -5 0
-7 -4 -4 -10z"/>
<path d="M2016 3845 c-6 -24 11 -112 19 -103 3 2 0 20 -5 39 -13 45 -13 46 10
52 11 3 18 2 16 -2 -3 -4 -1 -13 5 -21 7 -12 9 -11 9 6 0 19 -28 54 -42 54 -3
0 -9 -11 -12 -25z"/>
<path d="M840 3806 c-19 -13 -43 -39 -54 -57 -18 -34 -18 -34 14 5 19 21 47
47 64 57 17 10 26 19 21 19 -6 0 -26 -11 -45 -24z"/>
<path d="M1092 3795 c55 -61 62 -126 21 -176 l-28 -33 27 18 c69 45 56 144
-27 206 -12 8 -9 2 7 -15z"/>
<path d="M1478 3803 c7 -3 16 -2 19 1 4 3 -2 6 -13 5 -11 0 -14 -3 -6 -6z"/>
<path d="M1434 3724 c-12 -65 21 -113 88 -128 l27 -6 -24 26 c-34 36 -31 48 6
29 17 -9 40 -15 53 -13 20 3 22 7 14 34 -8 30 -18 37 -149 92 -4 2 -11 -13
-15 -34z m60 -10 c3 -8 2 -12 -4 -9 -6 3 -10 10 -10 16 0 14 7 11 14 -7z m43
-36 c-3 -8 -6 -5 -6 6 -1 11 2 17 5 13 3 -3 4 -12 1 -19z m40 -20 c-3 -7 -5
-2 -5 12 0 14 2 19 5 13 2 -7 2 -19 0 -25z"/>
<path d="M2160 3731 c-18 -4 -11 -7 24 -11 35 -3 50 -10 52 -21 1 -11 -4 -15
-16 -12 -10 3 -21 0 -24 -6 -11 -17 37 -13 63 5 22 16 22 18 6 27 -27 15 -77
23 -105 18z"/>
<path d="M1376 3704 c-4 -9 -4 -19 -1 -22 3 -3 5 0 5 7 0 7 5 9 10 6 6 -3 10
-2 10 4 0 18 -18 21 -24 5z"/>
<path d="M949 3689 c-21 -21 -19 -53 7 -77 9 -7 10 -8 4 0 -14 17 -12 64 3 76
6 5 21 12 32 15 18 4 18 5 -2 6 -13 0 -32 -8 -44 -20z"/>
<path d="M1720 3681 c-5 -11 -10 -28 -9 -38 0 -16 1 -16 10 2 8 17 9 16 6 -7
-2 -15 0 -33 4 -40 6 -8 9 -2 9 19 0 38 15 51 29 26 5 -10 12 -16 15 -13 7 7
-33 70 -45 70 -4 0 -13 -9 -19 -19z"/>
<path d="M751 3664 c0 -11 3 -14 6 -6 3 7 2 16 -1 19 -3 4 -6 -2 -5 -13z"/>
<path d="M2335 3613 c-16 -9 -37 -19 -45 -23 -26 -12 -24 -57 2 -74 38 -25 82
-30 97 -12 19 23 26 93 11 111 -16 19 -27 19 -65 -2z"/>
<path d="M1786 3595 c8 -37 14 -45 14 -19 0 10 -5 26 -10 34 -8 11 -9 7 -4
-15z"/>
<path d="M1330 3595 c-7 -9 -8 -15 -2 -15 5 0 12 7 16 15 3 8 4 15 2 15 -2 0
-9 -7 -16 -15z"/>
<path d="M1978 3603 c12 -2 32 -2 45 0 12 2 2 4 -23 4 -25 0 -35 -2 -22 -4z"/>
<path d="M852 3588 c-7 -7 -12 -28 -11 -47 l1 -36 10 28 c14 38 32 29 39 -19
l6 -39 2 37 c1 36 -16 88 -29 88 -3 0 -11 -5 -18 -12z"/>
<path d="M1900 3590 c-8 -5 -10 -10 -5 -10 6 0 17 5 25 10 8 5 11 10 5 10 -5
0 -17 -5 -25 -10z"/>
<path d="M2110 3573 c49 -32 93 -79 111 -118 10 -22 19 -33 19 -25 0 43 -104
160 -143 160 -6 0 0 -7 13 -17z"/>
<path d="M1808 3523 c-20 -21 -48 -58 -62 -83 -16 -28 -27 -39 -30 -30 -2 8
-7 22 -9 30 -3 8 -6 -10 -6 -41 -3 -174 -64 -344 -161 -447 -49 -53 -50 -53
-51 -25 -1 25 -2 24 -8 -8 -4 -19 -24 -63 -44 -96 -21 -34 -49 -85 -62 -115
l-26 -53 6 52 c7 65 33 148 74 233 17 36 31 76 32 90 0 14 4 34 9 45 7 17 9
16 10 -10 2 -18 4 -23 7 -12 4 17 -34 147 -46 157 -4 3 -21 24 -39 47 -32 41
-115 103 -136 103 -6 -1 3 -8 19 -17 44 -23 113 -91 143 -143 23 -38 27 -55
25 -113 -1 -57 -8 -83 -46 -165 -54 -116 -77 -190 -77 -250 l0 -45 -36 72
c-20 39 -60 98 -91 131 l-54 59 16 83 c10 48 15 100 11 125 -6 47 -44 133 -76
173 l-20 25 19 -45 c10 -25 22 -56 26 -69 6 -21 5 -23 -11 -17 -16 6 -15 4 4
-14 72 -67 -43 -161 -122 -99 -37 29 -49 56 -57 119 l-6 55 -2 -48 c-3 -112
92 -187 179 -142 17 9 30 11 30 6 0 -21 -24 -117 -31 -125 -18 -21 -171 107
-232 194 -14 20 -14 17 2 -16 20 -42 107 -128 186 -185 l46 -33 -2 -70 c-2
-132 55 -270 148 -361 l53 -51 0 -98 c0 -53 11 -186 25 -294 37 -299 45 -410
52 -737 8 -422 -20 -852 -75 -1163 l-18 -102 166 0 167 0 7 53 c10 84 7 712
-4 900 -24 389 -65 686 -141 1018 -27 119 -49 224 -49 233 0 32 42 100 94 150
49 49 45 49 -25 -4 l-34 -25 21 35 c17 28 45 47 132 91 196 98 350 138 537
140 95 1 114 3 90 11 -16 5 -84 10 -150 10 -133 0 -221 -15 -355 -63 -47 -16
-89 -31 -95 -33 -5 -1 -26 -10 -45 -20 -27 -13 -15 2 53 69 95 91 180 147 298
197 41 17 90 41 110 53 52 33 120 113 158 186 19 35 48 80 65 99 20 23 23 28
7 15 l-24 -20 7 30 c4 20 -4 10 -27 -31 -86 -157 -175 -240 -330 -305 -209
-89 -380 -229 -471 -390 -30 -51 -32 -45 -11 34 49 187 199 335 400 392 90 26
150 62 201 122 25 29 42 53 39 53 -4 0 -26 -21 -48 -46 -55 -62 -96 -87 -202
-119 -205 -61 -336 -176 -392 -340 l-13 -40 5 51 c14 137 79 288 169 394 98
115 126 199 126 373 0 117 20 173 85 246 47 51 41 54 -7 4z m-564 -813 c40
-76 66 -159 66 -209 l-1 -36 -19 25 c-11 14 -28 34 -39 45 -21 23 -53 82 -56
105 -1 8 -9 32 -18 52 -9 20 -19 63 -23 95 l-6 58 31 -35 c17 -19 46 -64 65
-100z"/>
<path d="M1209 2625 c17 -33 31 -51 31 -40 0 6 -10 21 -21 35 -13 17 -17 18
-10 5z"/>
<path d="M1908 3495 c49 -21 39 -35 -25 -35 -31 0 -53 -3 -50 -6 9 -9 98 -8
125 1 27 8 26 41 -1 39 -9 -1 -15 1 -13 5 3 4 -12 8 -32 8 l-37 1 33 -13z"/>
<path d="M2490 3458 c-11 -18 -20 -42 -19 -53 0 -14 2 -16 6 -5 3 8 14 32 24
53 23 46 16 49 -11 5z"/>
<path d="M2741 3430 c14 -31 19 -36 19 -24 0 6 -7 19 -16 30 -14 18 -14 18 -3
-6z"/>
<path d="M746 3421 c-4 -5 3 -7 14 -4 23 6 26 13 6 13 -8 0 -17 -4 -20 -9z"/>
<path d="M694 3389 c-16 -17 -16 -22 -4 -29 22 -14 44 -12 66 5 14 11 15 15 4
14 -8 -1 -23 -1 -34 0 -15 1 -16 4 -6 16 19 23 -4 18 -26 -6z m43 -25 c-3 -3
-12 -4 -19 -1 -8 3 -5 6 6 6 11 1 17 -2 13 -5z"/>
<path d="M2616 3397 c3 -10 9 -15 12 -12 3 3 0 11 -7 18 -10 9 -11 8 -5 -6z"/>
<path d="M513 3382 c-18 -9 -33 -23 -33 -32 0 -22 28 -46 62 -54 33 -8 51 18
46 67 -4 38 -25 43 -75 19z"/>
<path d="M2010 3390 c-11 -7 -7 -10 17 -10 21 0 37 -7 47 -22 l16 -22 0 21 c0
35 -48 54 -80 33z"/>
<path d="M1148 3373 c12 -2 32 -2 45 0 12 2 2 4 -23 4 -25 0 -35 -2 -22 -4z"/>
<path d="M1430 3361 c-13 -25 -13 -51 0 -71 7 -11 9 -7 6 15 -2 17 -1 24 1 17
4 -10 8 -9 18 5 13 17 14 17 23 -6 5 -14 11 -20 15 -15 7 12 -28 74 -43 74 -5
0 -14 -9 -20 -19z"/>
<path d="M1039 3342 c-46 -29 -99 -85 -99 -104 0 -6 13 7 29 29 30 42 82 79
129 93 21 6 23 8 6 9 -11 1 -40 -12 -65 -27z"/>
<path d="M1228 3363 c7 -3 16 -2 19 1 4 3 -2 6 -13 5 -11 0 -14 -3 -6 -6z"/>
<path d="M2616 3353 c-6 -14 -5 -15 5 -6 7 7 10 15 7 18 -3 3 -9 -2 -12 -12z"/>
<path d="M1875 3330 c3 -5 8 -10 11 -10 2 0 4 5 4 10 0 6 -5 10 -11 10 -5 0
-7 -4 -4 -10z"/>
<path d="M1541 3314 c0 -11 3 -14 6 -6 3 7 2 16 -1 19 -3 4 -6 -2 -5 -13z"/>
<path d="M2663 3309 c-9 -9 -8 -15 3 -27 19 -19 30 -8 18 18 -7 16 -12 18 -21
9z"/>
<path d="M2362 3278 c-7 -7 -12 -19 -12 -27 0 -13 2 -14 9 -2 5 7 14 10 20 7
6 -4 11 -1 11 8 0 21 -14 28 -28 14z"/>
<path d="M1492 3255 c0 -16 2 -22 5 -12 2 9 2 23 0 30 -3 6 -5 -1 -5 -18z"/>
<path d="M892 3250 c0 -14 2 -19 5 -12 2 6 2 18 0 25 -3 6 -5 1 -5 -13z"/>
<path d="M1551 3244 c0 -11 3 -14 6 -6 3 7 2 16 -1 19 -3 4 -6 -2 -5 -13z"/>
<path d="M2167 3203 c-54 -37 -128 -43 -169 -13 -29 21 -29 21 -19 1 33 -61
148 -53 212 15 28 30 24 30 -24 -3z"/>
<path d="M2381 3214 c0 -11 3 -14 6 -6 3 7 2 16 -1 19 -3 4 -6 -2 -5 -13z"/>
<path d="M1856 3205 c-3 -8 -1 -15 4 -15 6 0 10 7 10 15 0 8 -2 15 -4 15 -2 0
-6 -7 -10 -15z"/>
<path d="M516 3184 c-15 -39 -6 -86 23 -115 16 -16 36 -29 44 -29 9 0 23 -3
32 -6 11 -5 8 3 -9 21 -34 37 -33 49 4 30 43 -22 70 -20 70 8 0 12 -4 27 -8
33 -5 9 -135 74 -147 74 -2 0 -6 -7 -9 -16z m51 -46 c-3 -7 -5 -2 -5 12 0 14
2 19 5 13 2 -7 2 -19 0 -25z m50 -20 c-3 -8 -6 -5 -6 6 -1 11 2 17 5 13 3 -3
4 -12 1 -19z m40 -20 c-3 -7 -5 -2 -5 12 0 14 2 19 5 13 2 -7 2 -19 0 -25z"/>
<path d="M1339 3163 c-13 -15 -12 -15 11 -3 34 17 36 20 18 20 -9 0 -22 -7
-29 -17z"/>
<path d="M677 3149 c7 -7 15 -10 18 -7 3 3 -2 9 -12 12 -14 6 -15 5 -6 -5z"/>
<path d="M1066 3144 c-4 -9 -1 -23 5 -30 12 -15 29 -10 29 9 0 8 -3 8 -9 -2
-6 -9 -10 -10 -16 -2 -4 7 -1 18 5 26 7 9 8 15 2 15 -5 0 -13 -7 -16 -16z"/>
<path d="M1292 3137 c-22 -23 -29 -47 -14 -47 4 0 18 -3 32 -5 22 -5 23 -4 5
5 -18 9 -17 10 7 7 16 -3 33 2 39 9 7 9 8 14 1 14 -6 0 -12 -4 -14 -9 -2 -5
-13 -5 -27 0 -19 8 -21 12 -11 24 21 25 5 27 -18 2z"/>
<path d="M2727 3122 c19 -14 46 -12 41 2 -2 5 -15 10 -31 10 -25 1 -26 0 -10
-12z"/>
<path d="M2431 3114 c10 -13 10 -17 -2 -25 -10 -6 -7 -9 14 -9 32 0 34 9 7 33
-25 21 -37 22 -19 1z"/>
<path d="M2596 3077 c3 -10 9 -15 12 -12 3 3 0 11 -7 18 -10 9 -11 8 -5 -6z"/>
<path d="M1817 3039 c7 -7 15 -10 18 -7 3 3 -2 9 -12 12 -14 6 -15 5 -6 -5z"/>
<path d="M2612 3030 c0 -14 2 -19 5 -12 2 6 2 18 0 25 -3 6 -5 1 -5 -13z"/>
<path d="M1736 3011 c-20 -22 -20 -42 -2 -86 12 -27 21 -35 41 -35 77 0 129
78 68 100 -16 6 -39 16 -53 22 -14 7 -28 13 -31 15 -4 1 -14 -6 -23 -16z"/>
<path d="M1492 2995 c0 -16 2 -22 5 -12 2 9 2 23 0 30 -3 6 -5 -1 -5 -18z"/>
<path d="M2488 3002 c9 -10 19 -17 21 -16 6 5 -20 34 -30 34 -5 0 -1 -8 9 -18z"/>
<path d="M693 2943 c-37 -5 -39 -10 -17 -41 11 -16 25 -22 52 -21 35 0 36 1
12 11 -23 10 -23 11 -5 15 44 9 48 12 35 28 -7 8 -20 14 -29 13 -9 0 -31 -3
-48 -5z"/>
<path d="M392 2898 c-7 -7 -12 -17 -12 -23 0 -7 -11 -17 -25 -23 -50 -23 -15
-82 48 -82 48 0 67 16 67 58 0 63 -45 103 -78 70z"/>
<path d="M2390 2902 c0 -24 53 -52 94 -51 l41 2 -49 6 c-33 5 -55 15 -67 30
-11 13 -19 19 -19 13z"/>
<path d="M2196 2872 c-12 -11 -6 -53 8 -58 18 -7 56 13 56 29 0 14 -55 38 -64
29z"/>
<path d="M2372 2852 c-22 -3 -23 -4 -5 -17 17 -13 16 -14 -8 -15 -14 0 -28 -3
-32 -6 -8 -8 3 -34 15 -34 5 0 6 6 2 13 -6 10 -4 10 7 0 7 -7 17 -13 22 -13 4
0 5 6 1 13 -6 10 -4 10 7 0 12 -12 69 -19 69 -9 0 3 -4 16 -10 30 -11 29 -36
44 -68 38z"/>
<path d="M1010 2846 c0 -2 8 -10 18 -17 15 -13 16 -12 3 4 -13 16 -21 21 -21
13z"/>
<path d="M756 2791 c37 -22 45 -33 55 -75 l7 -31 1 31 c1 25 -7 39 -34 63 -20
17 -41 31 -48 31 -7 0 2 -9 19 -19z"/>
<path d="M2544 2765 c-18 -14 -18 -14 6 -15 l25 0 -29 -23 c-29 -23 -29 -47
-1 -47 25 0 105 43 105 56 0 17 -40 44 -65 44 -12 0 -30 -7 -41 -15z"/>
<path d="M550 2729 c-7 -11 -10 -23 -7 -25 2 -2 9 7 15 21 14 30 7 33 -8 4z"/>
<path d="M665 2679 c-5 -14 -1 -27 11 -38 17 -15 17 -15 5 1 -7 9 -10 26 -6
38 3 11 4 20 1 20 -2 0 -8 -10 -11 -21z"/>
<path d="M531 2674 c0 -11 3 -14 6 -6 3 7 2 16 -1 19 -3 4 -6 -2 -5 -13z"/>
<path d="M2530 2641 c16 -31 12 -34 -19 -12 -37 27 -41 26 -41 -4 0 -16 14
-37 38 -60 20 -19 40 -35 43 -35 9 0 29 48 29 69 0 17 -39 61 -53 61 -4 0 -3
-9 3 -19z m-43 -33 c-3 -8 -6 -5 -6 6 -1 11 2 17 5 13 3 -3 4 -12 1 -19z m20
-20 c-3 -8 -6 -5 -6 6 -1 11 2 17 5 13 3 -3 4 -12 1 -19z m30 -20 c-3 -8 -6
-5 -6 6 -1 11 2 17 5 13 3 -3 4 -12 1 -19z"/>
<path d="M1070 2596 c0 -8 4 -17 8 -20 4 -2 8 4 8 15 0 10 -4 19 -8 19 -4 0
-8 -6 -8 -14z"/>
<path d="M640 2556 c0 -13 6 -29 14 -35 11 -9 12 -6 8 16 -4 22 -2 25 14 20
18 -7 18 -6 0 8 -27 21 -36 19 -36 -9z"/>
<path d="M2043 2543 c-10 -10 -14 -15 -8 -11 6 4 22 12 36 17 15 6 18 10 8 10
-9 1 -25 -7 -36 -16z"/>
<path d="M1013 2543 c9 -2 25 -2 35 0 9 3 1 5 -18 5 -19 0 -27 -2 -17 -5z"/>
<path d="M958 2533 c7 -3 16 -2 19 1 4 3 -2 6 -13 5 -11 0 -14 -3 -6 -6z"/>
<path d="M1870 2519 c-12 -9 -12 -10 3 -5 10 3 25 -1 34 -10 14 -14 14 -16 -3
-30 -16 -13 -14 -13 13 0 42 21 48 33 24 45 -25 14 -52 14 -71 0z"/>
<path d="M864 2478 l-29 -33 33 29 c30 28 37 36 29 36 -2 0 -16 -15 -33 -32z"/>
<path d="M2322 2498 c-16 -16 -15 -90 2 -113 25 -35 126 0 126 45 0 20 -19 40
-40 40 -8 0 -21 9 -28 20 -14 22 -42 26 -60 8z"/>
<path d="M1090 2453 c0 -13 5 -23 10 -23 13 0 13 11 0 30 -8 12 -10 11 -10 -7z"/>
<path d="M1858 2463 c7 -3 16 -2 19 1 4 3 -2 6 -13 5 -11 0 -14 -3 -6 -6z"/>
<path d="M1688 2433 c12 -2 30 -2 40 0 9 3 -1 5 -23 4 -22 0 -30 -2 -17 -4z"/>
<path d="M2113 2414 c-12 -13 -18 -24 -13 -24 11 0 40 29 40 41 0 12 -1 11
-27 -17z"/>
<path d="M606 2375 c-9 -24 -8 -25 13 -25 10 0 25 8 32 17 12 15 12 16 -5 10
-11 -5 -22 -3 -26 3 -5 8 -9 6 -14 -5z"/>
<path d="M1883 2347 c20 -26 39 -64 42 -85 11 -63 13 -68 14 -33 1 42 -30 109
-65 142 -20 18 -18 13 9 -24z"/>
<path d="M2241 2374 c0 -11 3 -14 6 -6 3 7 2 16 -1 19 -3 4 -6 -2 -5 -13z"/>
<path d="M1730 2361 c0 -6 4 -13 10 -16 6 -3 7 1 4 9 -7 18 -14 21 -14 7z"/>
<path d="M1788 2339 c4 -29 3 -31 -19 -25 -22 7 -22 5 6 -18 21 -18 31 -22 37
-13 11 17 10 49 -2 42 -5 -3 -7 0 -4 8 3 8 -1 19 -9 25 -11 9 -13 6 -9 -19z"/>
<path d="M802 2330 c0 -14 2 -19 5 -12 2 6 2 18 0 25 -3 6 -5 1 -5 -13z"/>
<path d="M945 2319 c-11 -16 -1 -19 13 -3 7 8 8 14 3 14 -5 0 -13 -5 -16 -11z"/>
<path d="M998 2314 c26 -18 29 -59 6 -94 l-16 -25 21 24 c12 13 21 36 21 51 0
25 -26 60 -46 60 -4 0 2 -7 14 -16z"/>
<path d="M1138 2312 c-56 -25 -45 -72 19 -88 41 -11 66 39 47 90 -7 19 -18 19
-66 -2z"/>
<path d="M2056 2321 c-4 -5 3 -7 14 -4 23 6 26 -6 8 -26 -11 -11 -9 -11 10 -2
30 16 29 41 -2 41 -14 0 -27 -4 -30 -9z"/>
<path d="M965 2290 c6 -10 4 -12 -11 -6 -15 6 -17 5 -6 -5 9 -9 15 -10 23 -2
8 8 7 13 -2 18 -8 6 -10 4 -4 -5z"/>
<path d="M2189 2283 c-13 -16 -12 -17 4 -4 9 7 17 15 17 17 0 8 -8 3 -21 -13z"/>
<path d="M1750 2217 c13 -7 27 -23 31 -37 l7 -25 1 26 c1 30 -16 49 -43 49
-19 0 -19 -1 4 -13z"/>
<path d="M874 2206 c11 -9 27 -16 35 -15 14 0 14 1 1 6 -8 3 -24 10 -35 15
-20 9 -20 9 -1 -6z"/>
<path d="M2050 2159 c0 -19 -2 -20 -16 -8 -14 12 -16 11 -13 -6 3 -11 12 -21
22 -23 13 -3 17 3 17 27 0 17 -2 31 -5 31 -3 0 -5 -10 -5 -21z"/>
<path d="M1640 2071 c0 -5 10 -22 23 -36 27 -32 88 -43 142 -25 45 15 41 23
-5 10 -46 -13 -110 3 -137 35 -13 14 -23 22 -23 16z"/>
<path d="M1191 2046 c-16 -19 -4 -146 13 -146 6 0 26 9 44 20 27 17 32 26 32
57 0 55 -15 73 -25 31 l-7 -33 -12 39 c-14 45 -27 54 -45 32z"/>
<path d="M1984 1528 c-25 -36 -44 -79 -39 -88 3 -6 19 -10 34 -10 29 0 53 20
65 54 6 19 6 19 -12 3 -28 -25 -34 -21 -17 13 8 16 15 31 15 35 0 10 -38 5
-46 -7z"/>
<path d="M938 1470 c-18 -11 -122 -199 -114 -208 3 -3 27 -10 53 -17 99 -25
165 19 188 124 l7 34 -23 -22 c-24 -23 -79 -55 -79 -47 0 2 11 24 25 47 14 24
25 56 25 72 0 24 -4 27 -32 27 -18 0 -40 -5 -50 -10z m52 -24 c0 -2 -13 -6
-29 -8 -17 -2 -28 -1 -25 4 5 8 54 12 54 4z m-20 -60 c0 -2 -18 -6 -39 -8 -22
-2 -37 0 -35 4 5 8 74 11 74 4z m67 -68 c-3 -8 -6 -5 -6 6 -1 11 2 17 5 13 3
-3 4 -12 1 -19z m-107 8 c0 -2 -15 -6 -34 -8 -19 -2 -32 0 -30 4 5 8 64 12 64
4z m64 -32 c3 -8 2 -12 -4 -9 -6 3 -10 10 -10 16 0 14 7 11 14 -7z"/>
</g>
</svg>
