<?xml version="1.0" standalone="no"?>
<!DOCTYPE svg PUBLIC "-//W3C//DTD SVG 20010904//EN"
 "http://www.w3.org/TR/2001/REC-SVG-20010904/DTD/svg10.dtd">
<svg version="1.0" xmlns="http://www.w3.org/2000/svg"
 width="325.000000pt" height="455.000000pt" viewBox="0 0 325.000000 455.000000"
 preserveAspectRatio="xMidYMid meet">

<g transform="translate(0.000000,455.000000) scale(0.100000,-0.100000)"
fill="#000000" stroke="none">
<path d="M1326 4222 c-3 -3 -6 -18 -6 -33 0 -36 63 -94 88 -80 43 23 72 82 52
105 -11 14 -122 20 -134 8z"/>
<path d="M817 4054 c-4 -4 -21 -7 -38 -8 -66 -2 -62 -71 6 -103 34 -16 36 -16
59 6 30 28 43 76 26 96 -13 15 -42 20 -53 9z"/>
<path d="M2252 3968 c-30 -30 9 -134 45 -122 56 18 72 28 82 51 14 31 0 53
-34 53 -12 0 -28 7 -35 15 -15 18 -42 19 -58 3z"/>
<path d="M350 3565 c-14 -7 -33 -16 -43 -19 -46 -14 -22 -76 38 -96 44 -15 62
-3 71 47 7 38 -8 83 -28 83 -7 0 -24 -7 -38 -15z"/>
<path d="M1092 3558 c-16 -16 -15 -53 3 -88 21 -41 65 -41 107 0 30 31 33 49
7 60 -8 4 -29 14 -47 23 -40 20 -54 21 -70 5z"/>
<path d="M1260 3235 c-14 -17 3 -55 25 -55 12 0 45 26 45 35 0 2 -13 10 -30
18 -24 13 -31 13 -40 2z"/>
<path d="M2683 3039 c-7 -7 -13 -21 -13 -31 0 -27 27 -76 49 -87 40 -22 125
69 93 101 -6 6 -26 12 -44 14 -18 1 -42 5 -53 8 -11 4 -26 2 -32 -5z"/>
<path d="M946 2735 c-8 -8 -23 -15 -34 -15 -60 0 -44 -69 22 -95 39 -16 41
-16 58 5 10 12 18 39 18 59 0 55 -31 78 -64 46z"/>
<path d="M406 2504 c-20 -20 -20 -57 -1 -94 17 -34 41 -38 85 -15 56 29 62 79
11 92 -14 3 -35 12 -46 19 -25 18 -30 17 -49 -2z"/>
<path d="M2230 2231 c-14 -27 -13 -47 6 -87 18 -38 31 -41 81 -17 60 28 65 93
8 93 -12 0 -28 7 -35 15 -17 21 -47 19 -60 -4z"/>
<path d="M3007 1771 c-10 -3 -35 -39 -57 -78 l-39 -72 31 -10 c68 -24 114 -1
144 74 l16 40 -21 -19 c-11 -10 -19 -21 -17 -25 2 -3 -6 -7 -19 -7 l-24 -2 20
36 c33 63 21 85 -34 63z m28 -21 c4 -6 -6 -10 -22 -10 -22 0 -25 2 -13 10 19
12 27 12 35 0z m-22 -47 c-7 -2 -21 -2 -30 0 -10 3 -4 5 12 5 17 0 24 -2 18
-5z m-30 -40 c-7 -2 -19 -2 -25 0 -7 3 -2 5 12 5 14 0 19 -2 13 -5z m54 -35
c-3 -7 -5 -2 -5 12 0 14 2 19 5 13 2 -7 2 -19 0 -25z"/>
</g>
</svg>
